# xmcd
#
# Track frame offsets: 
#        150
#        19807
#        30487
#        37775
#        47137
#        58190
#        69277
#        78282
#
# Disc length: 1289 seconds
#
# Revision: 1
# Processed by: cddbd v1.5.2PL0 Copyright (c) Steve Scherf et al.
# Submitted via: ExactAudioCopyFreeDBPlugin 1.0
#
DISCID=59050708
DTITLE=Revista Recreio - Festa Junina
DYEAR=1995
DGENRE=Infantil
TTITLE0=Pout-Pourri: Pula A Fogueira - O Balão Vai Subindo - Isto É Lá C
TTITLE0=om O Santo Antônio
TTITLE1=Brincadeiras De Quadrilha
TTITLE2=O Nosso Arraiá
TTITLE3=Vem Dançar Forró
TTITLE4=Até O Dia Clarear
TTITLE5=Entra Na Roda
TTITLE6=Casamento Na Roça
TTITLE7=Pout-Pourri: Capelinha De Melão - Cai, Cai Balão - Chegou A Hora
TTITLE7=Da Fogueira
EXTD=
EXTT0=
EXTT1=
EXTT2=
EXTT3=
EXTT4=
EXTT5=
EXTT6=
EXTT7=
PLAYORDER=
